<svg xmlns="http://www.w3.org/2000/svg" viewBox="0 0 200 260" fill="none">
  <defs>
    <linearGradient id="grad" x1="0" y1="0" x2="1" y2="1">
      <stop offset="0%" stop-color="#8BC34A"/>
      <stop offset="55%" stop-color="#3ECFBA"/>
      <stop offset="100%" stop-color="#26C6DA"/>
    </linearGradient>
  </defs>

  <!-- S outer stroke (thick, gradient) -->
  <path d="
    M 100 22
    C 60 22, 28 50, 28 88
    C 28 130, 68 145, 100 150
    C 132 155, 172 168, 172 208
    C 172 240, 145 258, 110 258
    C 75 258, 48 242, 38 228
  "
    stroke="url(#grad)"
    stroke-width="40"
    stroke-linecap="round"
    fill="none"
  />
  <!-- S white inner cutout -->
  <path d="
    M 100 22
    C 60 22, 28 50, 28 88
    C 28 130, 68 145, 100 150
    C 132 155, 172 168, 172 208
    C 172 240, 145 258, 110 258
    C 75 258, 48 242, 38 228
  "
    stroke="white"
    stroke-width="14"
    stroke-linecap="round"
    fill="none"
  />
</svg>
